<svg width="36" height="36" viewBox="0 0 36 36" fill="none" xmlns="http://www.w3.org/2000/svg">
<path d="M32.6698 7.0241L28.3908 2.7491C27.8685 2.22678 27.1694 1.93347 26.4301 1.93347C25.6908 1.93347 24.9917 2.22276 24.4694 2.7491L19.8609 7.34954C19.3386 7.87187 19.0453 8.57499 19.0453 9.31428C19.0453 10.0576 19.3346 10.7527 19.8609 11.279L23.4609 14.883C22.6408 16.7939 21.4624 18.53 19.9895 19.9978C18.5149 21.4803 16.7913 22.6495 14.8788 23.4772L11.2788 19.8732C10.7564 19.3509 10.0573 19.0576 9.31804 19.0576C8.95339 19.0562 8.59214 19.1277 8.25546 19.2677C7.91878 19.4078 7.61343 19.6136 7.35732 19.8732L2.74482 24.4737C2.2225 24.996 1.9292 25.6991 1.9292 26.4384C1.9292 27.1817 2.21849 27.8768 2.74482 28.4031L7.01982 32.6781C7.91179 33.5701 9.14125 34.0803 10.4029 34.0803C10.664 34.0803 10.9171 34.0603 11.1743 34.0161C16.4939 33.1402 21.7734 30.3076 26.0363 26.0487C30.2953 21.7817 33.1238 16.5022 34.0078 11.1786C34.2609 9.66785 33.7546 8.11294 32.6698 7.0241V7.0241ZM31.1591 10.7004C30.3756 15.4375 27.8283 20.1625 23.9913 23.9995C20.1542 27.8366 15.4332 30.3839 10.6962 31.1674C10.1015 31.2678 9.49081 31.067 9.05688 30.637L4.85822 26.4384L9.31 21.9826L14.1234 26.804L14.1596 26.8402L15.0274 26.5187C17.6588 25.5513 20.0484 24.0232 22.0305 22.0404C24.0126 20.0575 25.5399 17.6675 26.5064 15.0357L26.8279 14.1678L21.9743 9.31829L26.4261 4.86249L30.6247 9.06115C31.0587 9.49508 31.2596 10.1058 31.1591 10.7004Z" fill="black" fill-opacity="0.85"/>
</svg>
