<svg width="36" height="36" viewBox="0 0 36 36" fill="none" xmlns="http://www.w3.org/2000/svg">
<path d="M31 7H5C4.44687 7 4 7.44688 4 8V28C4 28.5531 4.44687 29 5 29H31C31.5531 29 32 28.5531 32 28V8C32 7.44688 31.5531 7 31 7ZM29.75 10.4625V26.75H6.25V10.4625L5.3875 9.79063L6.61562 8.2125L7.95312 9.25313H28.05L29.3875 8.2125L30.6156 9.79063L29.75 10.4625ZM28.05 9.25L18 17.0625L7.95 9.25L6.6125 8.20938L5.38438 9.7875L6.24687 10.4594L16.9219 18.7594C17.2289 18.9979 17.6066 19.1273 17.9953 19.1273C18.3841 19.1273 18.7618 18.9979 19.0688 18.7594L29.75 10.4625L30.6125 9.79063L29.3844 8.2125L28.05 9.25Z" fill="black" fill-opacity="0.85"/>
</svg>
