<?xml version="1.0" standalone="no"?>
<!DOCTYPE svg PUBLIC "-//W3C//DTD SVG 20010904//EN"
 "http://www.w3.org/TR/2001/REC-SVG-20010904/DTD/svg10.dtd">
<svg version="1.0" xmlns="http://www.w3.org/2000/svg"
 width="500.000000pt" height="500.000000pt" viewBox="0 0 500.000000 500.000000"
 preserveAspectRatio="xMidYMid meet">
<metadata>
Created by potrace 1.14, written by Peter Selinger 2001-2017
</metadata>
<g transform="translate(0.000000,500.000000) scale(0.100000,-0.100000)"
fill="#000000" stroke="none">
<path d="M2305 4994 c-368 -38 -631 -112 -926 -260 -475 -238 -864 -624 -1103
-1093 -193 -379 -271 -707 -271 -1141 0 -434 78 -762 271 -1141 340 -669 987
-1161 1719 -1308 188 -38 277 -46 505 -46 228 0 317 8 505 46 732 147 1379
639 1719 1307 193 380 271 708 271 1142 0 228 -8 317 -46 505 -149 741 -645
1387 -1328 1729 -249 125 -477 197 -766 242 -96 14 -465 27 -550 18z m535
-165 c834 -118 1541 -679 1853 -1470 180 -456 210 -984 82 -1468 -215 -812
-856 -1451 -1670 -1667 -392 -104 -818 -104 -1210 0 -816 216 -1455 855 -1671
1671 -104 394 -104 817 1 1214 215 811 858 1454 1667 1665 321 85 618 102 948
55z"/>
<path d="M2265 4768 c-145 -14 -329 -55 -488 -108 -671 -224 -1213 -766 -1437
-1437 -328 -985 40 -2048 909 -2624 759 -504 1743 -504 2502 0 429 284 749
699 909 1178 328 985 -40 2048 -909 2624 -436 290 -964 420 -1486 367z m35
-1388 l0 -40 -150 0 -150 0 0 40 0 40 150 0 150 0 0 -40z m518 -63 c-3 -75 -9
-111 -23 -134 -20 -34 -63 -63 -94 -63 -18 0 -21 6 -21 48 0 35 5 52 20 65 17
14 20 29 20 102 l0 85 51 0 52 0 -5 -103z m192 83 c0 -16 -7 -20 -37 -22 l-38
-1 38 -4 c29 -3 37 -9 37 -24 0 -12 -7 -19 -20 -19 -17 0 -20 -7 -20 -39 0
-22 7 -46 15 -55 9 -9 15 -34 15 -65 0 -57 -9 -62 -60 -36 -48 25 -63 67 -68
183 l-4 102 71 0 c64 0 71 -2 71 -20z m-350 -30 l0 -40 -160 0 -160 0 0 40 0
40 160 0 160 0 0 -40z m-350 -99 c0 -118 -31 -144 -182 -149 l-108 -4 0 46 0
46 74 0 c77 0 106 6 106 21 0 5 -47 9 -105 9 l-105 0 0 40 0 40 160 0 160 0 0
-49z m350 -6 c0 -43 -1 -45 -30 -45 -23 0 -31 -5 -36 -24 -3 -13 -17 -35 -31
-48 -21 -20 -36 -23 -119 -26 l-94 -4 0 46 0 46 48 0 c55 0 92 9 92 21 0 5
-34 9 -75 9 l-75 0 0 35 0 35 160 0 160 0 0 -45z m-1005 -446 c57 -16 100 -64
114 -127 6 -30 11 -147 11 -273 l0 -220 -107 3 -108 3 -3 48 -3 48 -72 -3 -72
-3 -3 -47 -3 -48 -105 0 -105 0 3 258 c3 295 7 308 88 350 40 20 59 22 185 22
77 0 158 -5 180 -11z m2750 -8 c95 -43 104 -76 105 -373 l0 -238 -104 0 -105
0 -3 48 -3 47 -72 3 -72 3 -3 -48 -3 -48 -107 -3 -108 -3 0 234 c0 380 12 396
290 396 120 1 152 -3 185 -18z m-3418 -2 c40 -15 81 -57 95 -98 18 -56 16
-190 -5 -228 -17 -31 -17 -34 0 -60 14 -21 18 -48 18 -123 l0 -95 -112 -3
-113 -3 0 61 c0 90 -8 100 -80 100 l-60 0 0 -80 0 -80 -115 0 -115 0 0 310 0
310 229 0 c138 0 241 -4 258 -11z m1473 -89 l0 -100 -90 0 -90 0 -2 -207 -3
-208 -115 0 -115 0 -3 208 -2 207 -95 0 -95 0 0 100 0 100 305 0 305 0 0 -100z
m660 5 l0 -95 -168 0 c-162 0 -192 -5 -192 -32 0 -4 74 -8 165 -8 l165 0 0
-75 0 -75 -170 0 c-93 0 -170 -4 -170 -8 0 -27 30 -32 197 -32 l173 0 0 -101
0 -101 -222 4 c-232 4 -261 9 -307 51 -50 46 -61 89 -61 253 0 165 12 224 55
264 45 43 86 49 318 50 l217 0 0 -95z m617 76 c54 -25 73 -62 73 -143 0 -46
-6 -72 -20 -96 l-21 -33 25 -30 c30 -35 41 -84 32 -146 -8 -61 -34 -101 -81
-126 -37 -20 -58 -22 -282 -25 l-243 -4 0 311 0 311 238 0 c211 0 242 -3 279
-19z m-2213 -897 c29 -11 17 -23 -18 -17 -27 4 -36 1 -50 -18 -34 -49 -6 -115
46 -107 31 4 39 48 9 48 -12 0 -21 5 -21 11 0 6 12 9 28 7 21 -2 28 -9 30 -31
5 -38 -14 -57 -53 -57 -68 0 -101 95 -50 145 24 25 49 31 79 19z m197 -4 c24
-13 26 -65 3 -78 -15 -8 -15 -12 0 -40 19 -36 20 -42 6 -42 -6 0 -18 16 -27
35 -10 21 -24 35 -35 35 -14 0 -18 -8 -18 -35 0 -19 -4 -35 -10 -35 -6 0 -10
35 -10 85 l0 85 36 0 c19 0 44 -5 55 -10z m119 -75 c0 -50 -4 -85 -10 -85 -6
0 -10 35 -10 85 0 50 4 85 10 85 6 0 10 -35 10 -85z m120 4 l0 -69 35 0 c19 0
35 -4 35 -10 0 -5 -22 -10 -50 -10 l-50 0 0 78 c0 43 3 82 6 85 16 16 24 -9
24 -74z m200 -69 c22 0 40 -4 40 -10 0 -5 -22 -10 -50 -10 l-50 0 0 78 c0 102
14 116 18 18 l3 -76 39 0z m285 129 c5 -14 0 -28 -14 -43 l-21 -23 21 -19 c20
-18 21 -18 40 6 20 26 26 12 9 -20 -7 -13 -7 -21 0 -25 20 -13 9 -20 -32 -22
-71 -3 -88 4 -88 36 0 16 6 34 13 40 8 6 12 23 9 42 -3 20 0 34 9 40 24 15 47
10 54 -12z m313 5 c26 -18 28 -41 5 -66 -15 -17 -15 -21 0 -53 22 -46 2 -45
-24 0 -12 19 -27 35 -35 35 -9 0 -14 -12 -14 -35 0 -19 -4 -35 -10 -35 -6 0
-10 35 -10 85 l0 85 33 0 c18 0 43 -7 55 -16z m185 -69 c15 -43 25 -80 23 -83
-9 -9 -26 10 -26 29 0 15 -7 19 -35 19 -29 0 -36 -4 -41 -25 -6 -23 -24 -36
-24 -18 0 27 54 163 63 160 7 -2 24 -39 40 -82z m131 62 c3 -13 13 -41 22 -63
l16 -39 22 59 c32 90 46 84 46 -18 0 -51 -4 -86 -10 -86 -6 0 -10 28 -11 63
l0 62 -21 -52 c-11 -29 -24 -53 -28 -53 -4 0 -17 24 -28 53 l-21 52 0 -62 c-1
-35 -5 -63 -11 -63 -6 0 -10 35 -10 85 0 66 3 85 14 85 8 0 16 -10 20 -23z
m296 13 c0 -5 -18 -10 -40 -10 -36 0 -40 -2 -40 -25 0 -21 5 -25 29 -25 17 0
33 -4 36 -10 4 -6 -8 -10 -29 -10 -33 0 -36 -2 -36 -30 0 -28 2 -30 40 -30 22
0 40 -4 40 -10 0 -5 -22 -10 -50 -10 l-50 0 0 85 0 85 50 0 c28 0 50 -4 50
-10z m142 -61 l38 -64 0 68 c0 38 4 67 10 67 6 0 10 -35 10 -85 0 -106 -12
-109 -62 -17 l-37 67 -1 -67 c0 -39 -4 -68 -10 -68 -6 0 -10 35 -10 86 0 103
9 105 62 13z"/>
<path d="M1420 2610 c-6 -11 -10 -42 -8 -68 l3 -47 73 -3 73 -3 -3 68 -3 68
-62 3 c-54 3 -63 0 -73 -18z"/>
<path d="M4157 2623 c-4 -3 -7 -35 -7 -70 l0 -64 73 3 72 3 3 53 c2 31 -2 60
-9 68 -12 14 -119 21 -132 7z"/>
<path d="M730 2580 l0 -41 68 3 c61 3 67 5 70 26 6 39 -15 52 -79 52 l-59 0 0
-40z"/>
<path d="M3440 2615 c0 -24 2 -25 64 -25 67 0 86 10 66 35 -8 10 -32 15 -71
15 -56 0 -59 -1 -59 -25z"/>
<path d="M3440 2425 c0 -26 1 -26 73 -23 66 3 72 5 75 26 3 21 0 22 -72 22
-75 0 -76 0 -76 -25z"/>
<path d="M1650 1860 c0 -29 2 -31 33 -28 27 2 32 7 32 28 0 21 -5 26 -32 28
-31 3 -33 1 -33 -28z"/>
<path d="M2407 1894 c-11 -11 -8 -44 3 -44 15 0 24 30 13 41 -5 5 -12 6 -16 3z"/>
<path d="M2380 1786 c0 -26 21 -39 46 -29 13 5 12 9 -7 29 -28 30 -39 30 -39
0z"/>
<path d="M2690 1860 c0 -25 4 -30 24 -30 33 0 53 25 36 45 -7 8 -23 15 -36 15
-20 0 -24 -5 -24 -30z"/>
<path d="M2892 1851 c-14 -39 -12 -44 16 -39 17 3 18 6 7 38 l-12 34 -11 -33z"/>
</g>
</svg>
