<?xml version="1.0" encoding="UTF-8"?><svg id="Layer_2" xmlns="http://www.w3.org/2000/svg" viewBox="0 0 288.58 288.58"><defs><style>.cls-1{fill:#fff;}.cls-2{fill:#1c1e23;}</style></defs><g id="Layer_1-2"><circle class="cls-2" cx="144.29" cy="144.29" r="144.29"/><path class="cls-2" d="M144.29,278.05c-9.08,0-18.15-.91-26.96-2.72-8.59-1.76-17.03-4.38-25.11-7.79-7.93-3.35-15.57-7.5-22.72-12.33-7.08-4.79-13.74-10.28-19.8-16.34-6.05-6.05-11.55-12.71-16.34-19.8-4.83-7.15-8.98-14.8-12.33-22.72-3.41-8.07-6.04-16.52-7.79-25.11-1.8-8.81-2.72-17.88-2.72-26.96s.91-18.15,2.72-26.96c1.76-8.59,4.38-17.03,7.79-25.11,3.35-7.93,7.5-15.57,12.33-22.72,4.79-7.08,10.28-13.74,16.34-19.8,6.05-6.05,12.71-11.55,19.8-16.34,7.15-4.83,14.8-8.98,22.72-12.33,8.07-3.41,16.52-6.04,25.11-7.79,8.81-1.8,17.88-2.72,26.96-2.72s18.15,.91,26.96,2.72c8.59,1.76,17.03,4.38,25.11,7.79,7.93,3.35,15.57,7.5,22.72,12.33,7.08,4.79,13.74,10.28,19.8,16.34,6.05,6.05,11.55,12.71,16.34,19.8,4.83,7.15,8.98,14.8,12.33,22.72,3.41,8.07,6.04,16.52,7.79,25.11,1.8,8.81,2.72,17.88,2.72,26.96s-.91,18.15-2.72,26.96c-1.76,8.59-4.38,17.03-7.79,25.11-3.35,7.93-7.5,15.57-12.33,22.72-4.79,7.08-10.28,13.74-16.34,19.8-6.05,6.05-12.71,11.55-19.8,16.34-7.15,4.83-14.8,8.98-22.72,12.33-8.07,3.41-16.52,6.04-25.11,7.79-8.81,1.8-17.88,2.72-26.96,2.72Z"/><path class="cls-1" d="M144.29,8.33c75.09,0,135.96,60.87,135.96,135.96s-60.87,135.96-135.96,135.96S8.33,219.38,8.33,144.29,69.2,8.33,144.29,8.33Zm0,4.39C71.74,12.72,12.72,71.74,12.72,144.29s59.02,131.57,131.57,131.57,131.57-59.02,131.57-131.57S216.84,12.72,144.29,12.72"/><path class="cls-1" d="M199.17,188.15h1.16v-5.07c0-1.01-.09-2.04-.14-3.01h.05l1.04,1.99,3.51,6.09h1.25v-9.66h-1.16v5.03c0,1,.09,2.08,.16,3.05h-.07l-1.03-1.99-3.51-6.09h-1.26v9.66Zm-10.37,0h5.71v-1.04h-4.49v-3.51h3.66v-1.04h-3.66v-3.03h4.34v-1.04h-5.57v9.66Zm-13.32,0h1.11v-5.34c0-.83-.09-2-.14-2.84h.05l.76,2.2,1.83,5.01h.82l1.83-5.01,.76-2.2h.05c-.07,.84-.16,2.01-.16,2.84v5.34h1.14v-9.66h-1.47l-1.84,5.17c-.22,.67-.43,1.34-.66,2.01h-.07c-.24-.67-.46-1.34-.68-2.01l-1.86-5.17h-1.47v9.66Zm-11.89,0h1.24l.93-2.95h3.53l.92,2.95h1.29l-3.28-9.66h-1.36l-3.28,9.66Zm2.95-5.39c.34-1.09,.66-2.13,.96-3.26h.05c.32,1.12,.62,2.17,.97,3.26l.46,1.47h-2.92l.47-1.47Zm-11.39,.32v-3.58h1.62c1.51,0,2.34,.45,2.34,1.72s-.83,1.86-2.34,1.86h-1.62Zm-1.22,5.08h1.22v-4.09h1.74l2.34,4.09h1.38l-2.47-4.22c1.32-.32,2.18-1.21,2.18-2.71,0-2.01-1.41-2.72-3.37-2.72h-3.03v9.66Zm-16.83-2.57c0-.75,.53-1.33,1.21-1.88,.68,1.04,1.59,2.05,2.54,2.88-.55,.47-1.18,.78-1.84,.78-1.08,0-1.91-.71-1.91-1.78Zm1.76,2.74c1.14,0,2.05-.43,2.79-1.11,.78,.55,1.53,.92,2.21,1.11l.32-1c-.54-.14-1.16-.46-1.8-.92,.78-1,1.32-2.17,1.68-3.45h-1.11c-.3,1.11-.76,2.07-1.37,2.86-.92-.75-1.82-1.72-2.45-2.72,1.08-.78,2.17-1.59,2.17-2.86,0-1.12-.7-1.91-1.89-1.91-1.33,0-2.22,1-2.22,2.29,0,.7,.24,1.47,.63,2.25-.99,.68-1.89,1.49-1.89,2.79,0,1.55,1.18,2.67,2.93,2.67Zm-.63-7.74c0-.8,.46-1.41,1.2-1.41,.64,0,.91,.51,.91,1.08,0,.86-.76,1.45-1.64,2.04-.29-.59-.46-1.18-.46-1.71Zm-16.81,7.57h5.43v-1.04h-4.21v-8.62h-1.22v9.66Zm-9.78,0h5.43v-1.04h-4.21v-8.62h-1.22v9.66Zm-6.49,0h1.22v-9.66h-1.22v9.66Zm-9.78-5.08v-3.58h1.62c1.51,0,2.34,.45,2.34,1.72s-.83,1.86-2.34,1.86h-1.62Zm-1.22,5.08h1.22v-4.09h1.74l2.34,4.09h1.38l-2.47-4.22c1.32-.32,2.18-1.21,2.18-2.71,0-2.01-1.41-2.72-3.37-2.72h-3.03v9.66Zm-7.91,.17c1.3,0,2.37-.47,2.99-1.12v-4.05h-3.16v1.01h2.04v2.53c-.38,.36-1.05,.57-1.74,.57-2.08,0-3.22-1.53-3.22-3.96s1.26-3.91,3.2-3.91c.99,0,1.61,.41,2.09,.92l.66-.79c-.55-.59-1.43-1.2-2.78-1.2-2.55,0-4.42,1.89-4.42,5.01s1.82,4.99,4.34,4.99Z"/><path class="cls-1" d="M247.97,144.64h-8.68v-5.04c0-2.28,.35-2.94,2.32-2.94h3.99c2.02,0,2.37,.66,2.37,2.94v5.04Zm12.41,16.8v-21.84c0-10.88-3.07-14.6-14.65-14.6h-4.87c-11.58,0-14.08,3.73-14.08,14.6v21.84h12.5v-5.39h8.68v5.39h12.41Zm-53.24-12.37c0,.79-.48,1.23-1.75,1.23h-6.8v-3.33h7.15c.96,0,1.4,.39,1.4,1.1v1.01Zm-.7-11.05c0,.61-.83,1.27-1.71,1.27h-6.14v-2.89h6.36c1.01,0,1.49,.53,1.49,1.14v.48Zm14.56,12.98v-1.14c0-2.94-1.27-5.48-3.86-7.24,2.11-1.84,3.03-4.12,3.03-6.05v-1.18c0-7.85-4.21-9.78-11.89-9.78h-22.63v35.79h23.77c8.95,0,11.58-4.65,11.58-10.39Zm-41.01,10.44v-11.23h-18.29c-2.46,0-2.81-.79-2.81-2.41h19.52v-8.42h-19.47c.26-1.84,1.1-2.41,2.76-2.41h18.29v-11.32h-20.61c-11.67,0-13.6,6.32-13.6,15.39v6.8c0,8.07,3.03,13.6,13.46,13.6h20.74Zm-38.11-24.12v-11.67h-35.13v11.67h11.18v24.12h13.38v-24.12h10.57Zm-51.58,7.32h-8.68v-5.04c0-2.28,.35-2.94,2.32-2.94h3.99c2.02,0,2.37,.66,2.37,2.94v5.04Zm12.41,16.8v-21.84c0-10.88-3.07-14.6-14.65-14.6h-4.87c-11.58,0-14.08,3.73-14.08,14.6v21.84h12.5v-5.39h8.68v5.39h12.41Zm-52.5-21.27c0,1.1-.66,2.02-2.63,2.02h-5.26v-4.74h5.26c1.93,0,2.63,.61,2.63,2.32v.39Zm13.11,21.27v-7.67c0-3.07-.66-5.22-2.46-6.58,1.53-1.67,2.37-3.9,2.37-6.75v-2.11c0-9.87-4.52-12.67-12.1-12.67H28.95v35.79h13.38v-9.08h5.04c1.84,0,2.63,.79,2.63,2.59v6.49h13.33Z"/><path class="cls-1" d="M162.53,99.51v-8.45h-5.71v8.59c0,1.66-.46,2.54-1.94,2.84v6.27c5.15-.58,7.65-3.77,7.65-9.25Zm11.08-3.14v-2.24h-4.15v-.78h4.15v-2.28h-7.83v8.45c0,5.49,2.52,8.67,7.65,9.25v-6.27c-1.42-.26-1.94-1.18-1.94-2.84v-3.28h2.12Zm-19.95,6.09v-4.99h-18.77v4.31h8.83c-.12,.88-.64,1.26-2.44,1.26h-5.63v5.55h6.43c5.85,0,7.55-2.64,7.87-6.13h3.71Zm-.32-5.91v-5.03h-18.14v5.03h18.14Zm-20.07,4.47v-4.17h-18.36v4.77h12.22v.36c0,.7-.44,1.06-1.88,1.06h-8.77v5.49h8.15c6.79,0,8.65-3.26,8.65-7.51Zm-.4-4.93v-4.81h-17.66v4.81h17.66Z"/></g></svg>