<svg width="36" height="36" viewBox="0 0 36 36" fill="none" xmlns="http://www.w3.org/2000/svg">
<path d="M18 3C9.71652 3 3 9.71652 3 18C3 26.2835 9.71652 33 18 33C26.2835 33 33 26.2835 33 18C33 9.71652 26.2835 3 18 3ZM18 30.4554C11.1228 30.4554 5.54464 24.8772 5.54464 18C5.54464 11.1228 11.1228 5.54464 18 5.54464C24.8772 5.54464 30.4554 11.1228 30.4554 18C30.4554 24.8772 24.8772 30.4554 18 30.4554ZM24.6429 10.7645C24.5117 10.7133 24.3718 10.6884 24.231 10.6912C24.0903 10.6941 23.9515 10.7247 23.8225 10.7812L14.7489 14.7522L10.7812 23.8259C10.6607 24.1004 10.6607 24.4118 10.7812 24.6864C10.8951 24.9475 11.106 25.1518 11.3739 25.2556C11.5011 25.3058 11.6317 25.3292 11.7656 25.3292C11.9129 25.3292 12.0569 25.2991 12.1942 25.2388L21.2679 21.2679L25.2355 12.1942C25.2934 12.0618 25.3239 11.919 25.3253 11.7745C25.3267 11.63 25.2989 11.4867 25.2435 11.3532C25.1882 11.2197 25.1065 11.0987 25.0033 10.9976C24.9 10.8964 24.7775 10.8171 24.6429 10.7645ZM20.1696 18.75L21.0469 19.6272L19.6272 21.0469L18.75 20.1696L13.5804 22.433L15.8404 17.2634L14.9866 16.4062L16.4062 14.9866L17.26 15.8404L22.433 13.5804L20.1696 18.75ZM16.4062 14.9866L14.9866 16.4062L15.8404 17.2634L18.75 20.1696L19.6272 21.0469L21.0469 19.6272L20.1696 18.75L17.2634 15.8404L16.4062 14.9866Z" fill="black" fill-opacity="0.85"/>
</svg>
