<svg width="37" height="36" viewBox="0 0 37 36" fill="none" xmlns="http://www.w3.org/2000/svg">
<path d="M32.8873 1.92493H3.31587C2.6047 1.92493 2.03015 2.49948 2.03015 3.21064V32.7821C2.03015 33.4932 2.6047 34.0678 3.31587 34.0678H32.8873C33.5985 34.0678 34.173 33.4932 34.173 32.7821V3.21064C34.173 2.49948 33.5985 1.92493 32.8873 1.92493ZM31.6016 31.4964H24.2047V21.6205H28.3833L29.0101 16.7709H24.2047V13.6731C24.2047 12.2669 24.5944 11.3106 26.6074 11.3106H29.1748V6.97136C28.7288 6.91109 27.206 6.7785 25.4302 6.7785C21.7257 6.7785 19.1904 9.04055 19.1904 13.191V16.7669H15.0038V21.6164H19.1944V31.4964H4.60158V4.49636H31.6016V31.4964Z" fill="black" fill-opacity="0.85"/>
</svg>
