<svg width="30" height="30" viewBox="0 0 30 30" fill="none" xmlns="http://www.w3.org/2000/svg">
<g clip-path="url(#clip0_190_102)">
<path d="M27.0418 8.7745L0.65663 3.34494C0.549421 3.323 0.437994 3.34094 0.341815 3.39353C0.235192 3.45235 0.156222 3.55103 0.122197 3.66796C0.0881722 3.78488 0.101865 3.91052 0.160276 4.01737L5.18139 13.1687C5.25703 13.3063 5.39751 13.3969 5.55477 13.4054L10.0396 13.7147L6.31306 16.2242C6.18188 16.313 6.10473 16.4589 6.11085 16.6152L6.33624 27.0664C6.33878 27.176 6.37896 27.2814 6.45082 27.3605C6.61813 27.5512 6.90892 27.5686 7.10231 27.4006L27.2557 9.57255C27.3307 9.50774 27.3808 9.41682 27.403 9.32148C27.4518 9.06997 27.2913 8.82686 27.0418 8.7745ZM8.33142 23.5455L8.19821 17.4537C8.19821 17.4537 15.594 12.4767 15.652 12.4374C15.71 12.398 15.7494 12.3338 15.7538 12.2611C15.7614 12.1339 15.6667 12.0251 15.5387 12.0147L6.57617 11.4001L3.65713 6.07859L23.466 10.1558L8.33142 23.5455Z" fill="white"/>
</g>
<defs>
<clipPath id="clip0_190_102">
<rect width="30" height="30" fill="white"/>
</clipPath>
</defs>
</svg>
