<svg width="37" height="36" viewBox="0 0 37 36" fill="none" xmlns="http://www.w3.org/2000/svg">
<path d="M18.0998 9.75372C13.5396 9.75372 9.8592 13.4341 9.8592 17.9943C9.8592 22.5546 13.5396 26.235 18.0998 26.235C22.6601 26.235 26.3405 22.5546 26.3405 17.9943C26.3405 13.4341 22.6601 9.75372 18.0998 9.75372ZM18.0998 23.3501C15.1507 23.3501 12.744 20.9435 12.744 17.9943C12.744 15.0452 15.1507 12.6385 18.0998 12.6385C21.0489 12.6385 23.4556 15.0452 23.4556 17.9943C23.4556 20.9435 21.0489 23.3501 18.0998 23.3501ZM26.678 7.49569C25.6132 7.49569 24.7534 8.35551 24.7534 9.42024C24.7534 10.485 25.6132 11.3448 26.678 11.3448C27.7427 11.3448 28.6025 10.489 28.6025 9.42024C28.6028 9.16741 28.5533 8.91701 28.4567 8.68337C28.3601 8.44973 28.2183 8.23744 28.0395 8.05867C27.8608 7.87989 27.6485 7.73814 27.4148 7.64154C27.1812 7.54493 26.9308 7.49537 26.678 7.49569ZM34.1632 17.9943C34.1632 15.7765 34.1833 13.5787 34.0588 11.3649C33.9342 8.79345 33.3476 6.51131 31.4672 4.63095C29.5829 2.74658 27.3047 2.16399 24.7333 2.03944C22.5155 1.91488 20.3177 1.93497 18.1038 1.93497C15.886 1.93497 13.6882 1.91488 11.4744 2.03944C8.90295 2.16399 6.62081 2.7506 4.74045 4.63095C2.85608 6.51533 2.27349 8.79345 2.14893 11.3649C2.02438 13.5827 2.04447 15.7805 2.04447 17.9943C2.04447 20.2082 2.02438 22.41 2.14893 24.6238C2.27349 27.1952 2.86009 29.4774 4.74045 31.3577C6.62483 33.2421 8.90295 33.8247 11.4744 33.9493C13.6922 34.0738 15.89 34.0537 18.1038 34.0537C20.3217 34.0537 22.5195 34.0738 24.7333 33.9493C27.3047 33.8247 29.5869 33.2381 31.4672 31.3577C33.3516 29.4734 33.9342 27.1952 34.0588 24.6238C34.1873 22.41 34.1632 20.2122 34.1632 17.9943ZM30.6275 27.4685C30.3342 28.1997 29.9806 28.7461 29.4141 29.3086C28.8476 29.8751 28.3052 30.2287 27.5739 30.522C25.4605 31.3618 20.4422 31.1729 18.0998 31.1729C15.7574 31.1729 10.7351 31.3618 8.6217 30.526C7.89045 30.2327 7.34402 29.8792 6.78152 29.3127C6.21501 28.7461 5.86143 28.2037 5.56813 27.4725C4.73242 25.3551 4.92126 20.3368 4.92126 17.9943C4.92126 15.6519 4.73242 10.6296 5.56813 8.51622C5.86143 7.78497 6.21501 7.23854 6.78152 6.67604C7.34804 6.11354 7.89045 5.75595 8.6217 5.46265C10.7351 4.62694 15.7574 4.81578 18.0998 4.81578C20.4422 4.81578 25.4646 4.62694 27.578 5.46265C28.3092 5.75595 28.8556 6.10953 29.4181 6.67604C29.9847 7.24256 30.3382 7.78497 30.6315 8.51622C31.4672 10.6296 31.2784 15.6519 31.2784 17.9943C31.2784 20.3368 31.4672 25.3551 30.6275 27.4685Z" fill="black" fill-opacity="0.85"/>
</svg>
