<svg width="37" height="36" viewBox="0 0 37 36" fill="none" xmlns="http://www.w3.org/2000/svg">
<path d="M32.9263 15.2048H18.4098V21.1713H26.7027C26.3451 23.0999 25.2603 24.7311 23.625 25.824C22.2429 26.7481 20.479 27.2945 18.4058 27.2945C14.392 27.2945 10.9969 24.5824 9.78349 20.9382C9.47813 20.0141 9.30134 19.0257 9.30134 18.0092C9.30134 16.9927 9.47813 16.0043 9.78349 15.0802C11.0009 11.44 14.396 8.72798 18.4098 8.72798C20.6719 8.72798 22.7009 9.50745 24.3 11.0342L28.7196 6.61057C26.0478 4.1195 22.5643 2.59271 18.4098 2.59271C12.3871 2.59271 7.1759 6.04807 4.64063 11.0865C3.59599 13.1677 3.00134 15.5222 3.00134 18.0132C3.00134 20.5043 3.59599 22.8548 4.64063 24.936C7.1759 29.9744 12.3871 33.4298 18.4098 33.4298C22.5723 33.4298 26.0598 32.0476 28.6071 29.6932C31.5201 27.0092 33.2036 23.0557 33.2036 18.3588C33.2036 17.2659 33.1071 16.2173 32.9263 15.2048Z" fill="black" fill-opacity="0.85"/>
</svg>
