<svg width="36" height="36" viewBox="0 0 36 36" fill="none" xmlns="http://www.w3.org/2000/svg">
<path d="M32.143 27.0049C32.143 22.521 29.5153 18.6478 25.7144 16.8437V10.1821C25.7144 9.57544 25.5015 8.98883 25.1077 8.52678L18.9845 1.26651C18.7274 0.96115 18.3618 0.808472 18.0002 0.808472C17.6386 0.808472 17.2729 0.96115 17.0158 1.26651L10.8926 8.52678C10.5015 8.98977 10.2866 9.57607 10.2859 10.1821V16.8437C6.48498 18.6478 3.8573 22.521 3.8573 27.0049H10.1452C10.0528 27.2942 10.0046 27.6076 10.0046 27.9612C10.0046 28.8491 10.31 29.717 10.8644 30.404C11.317 30.9659 11.9164 31.3915 12.5961 31.6335C13.5243 33.8031 15.6336 35.2013 18.0002 35.2013C19.1694 35.2013 20.3024 34.8558 21.2707 34.2049C22.2189 33.5701 22.9542 32.6821 23.4002 31.6335C24.0796 31.393 24.679 30.9688 25.1319 30.408C25.6871 29.7147 25.9902 28.8534 25.9917 27.9652C25.9917 27.6277 25.9475 27.3062 25.8671 27.0089H32.143V27.0049ZM28.0569 22.4004C28.4345 22.987 28.7399 23.6178 28.9609 24.2728H25.5537V19.8812C26.5561 20.5354 27.4091 21.3939 28.0569 22.4004ZM13.018 16.8437V10.2424L18.0002 4.33615L22.9823 10.2424V24.2728H13.018V16.8437ZM7.03944 24.2728C7.26042 23.6178 7.56578 22.987 7.94346 22.4004C8.59837 21.3879 9.45016 20.5321 10.4466 19.8812V24.2728H7.03944ZM22.6649 28.9415C22.456 29.062 22.2149 29.1103 21.9778 29.0781L21.1944 28.9817L21.0819 29.7612C20.8649 31.2839 19.539 32.433 18.0002 32.433C16.4613 32.433 15.1354 31.2839 14.9185 29.7612L14.806 28.9777L14.0225 29.0781C13.7843 29.1065 13.5433 29.0572 13.3354 28.9375C12.9859 28.7366 12.7689 28.3629 12.7689 27.9571C12.7689 27.5312 13.006 27.1777 13.3555 27.0009H22.6488C23.0024 27.1817 23.2354 27.5353 23.2354 27.9571C23.2314 28.367 23.0144 28.7446 22.6649 28.9415ZM16.0716 13.5049C16.0716 14.0164 16.2748 14.5069 16.6365 14.8686C16.9981 15.2303 17.4887 15.4335 18.0002 15.4335C18.5116 15.4335 19.0022 15.2303 19.3639 14.8686C19.7255 14.5069 19.9287 14.0164 19.9287 13.5049C19.9287 12.9934 19.7255 12.5029 19.3639 12.1412C19.0022 11.7795 18.5116 11.5763 18.0002 11.5763C17.4887 11.5763 16.9981 11.7795 16.6365 12.1412C16.2748 12.5029 16.0716 12.9934 16.0716 13.5049Z" fill="black" fill-opacity="0.85"/>
</svg>
