<?xml version="1.0" encoding="UTF-8"?><svg id="Layer_2" xmlns="http://www.w3.org/2000/svg" viewBox="0 0 1420.4 308"><defs><style>.cls-1{fill:#fff;}.cls-2{fill:#1c1e23;}</style></defs><g id="Layer_1-2"><g><circle class="cls-2" cx="154" cy="154" r="154"/><path class="cls-2" d="M154,296.5c-9.67,0-19.33-.97-28.72-2.9-9.15-1.87-18.15-4.67-26.75-8.3-8.44-3.57-16.59-7.99-24.2-13.14-7.55-5.1-14.64-10.95-21.09-17.4s-12.3-13.55-17.4-21.09c-5.15-7.62-9.57-15.76-13.14-24.2-3.64-8.6-6.43-17.6-8.3-26.75-1.92-9.39-2.9-19.05-2.9-28.72s.97-19.33,2.9-28.72c1.87-9.15,4.67-18.15,8.3-26.75,3.57-8.44,7.99-16.59,13.14-24.2,5.1-7.55,10.95-14.64,17.4-21.09s13.55-12.3,21.09-17.4c7.62-5.15,15.76-9.57,24.2-13.14,8.6-3.64,17.6-6.43,26.75-8.3,9.39-1.92,19.05-2.9,28.72-2.9s19.33,.97,28.72,2.9c9.15,1.87,18.15,4.67,26.75,8.3,8.44,3.57,16.59,7.99,24.2,13.14,7.55,5.1,14.64,10.95,21.09,17.4s12.3,13.55,17.4,21.09c5.15,7.62,9.57,15.76,13.14,24.2,3.64,8.6,6.43,17.6,8.3,26.75,1.92,9.39,2.9,19.05,2.9,28.72s-.97,19.33-2.9,28.72c-1.87,9.15-4.67,18.15-8.3,26.75-3.57,8.44-7.99,16.59-13.14,24.2-5.1,7.55-10.95,14.64-17.4,21.09s-13.55,12.3-21.09,17.4c-7.62,5.15-15.76,9.57-24.2,13.14-8.6,3.64-17.6,6.43-26.75,8.3-9.39,1.92-19.05,2.9-28.72,2.9Z"/><path class="cls-1" d="M154,9c80.08,0,145,64.92,145,145s-64.92,145-145,145S9,234.08,9,154,73.92,9,154,9Zm0,5c-9.5,0-19,.96-28.22,2.84-8.99,1.84-17.83,4.58-26.27,8.16-8.29,3.51-16.29,7.85-23.78,12.91-7.41,5.01-14.39,10.76-20.72,17.1-6.34,6.34-12.09,13.31-17.1,20.72-5.06,7.48-9.4,15.48-12.91,23.78-3.57,8.45-6.32,17.29-8.16,26.27-1.89,9.22-2.84,18.72-2.84,28.22s.96,19,2.84,28.22c1.84,8.99,4.58,17.83,8.16,26.27,3.51,8.29,7.85,16.29,12.91,23.78,5.01,7.41,10.76,14.39,17.1,20.72,6.34,6.34,13.31,12.09,20.72,17.1,7.48,5.06,15.48,9.4,23.78,12.91,8.45,3.57,17.29,6.32,26.27,8.16,9.22,1.89,18.72,2.84,28.22,2.84s19-.96,28.22-2.84c8.99-1.84,17.83-4.58,26.27-8.16,8.29-3.51,16.29-7.85,23.78-12.91,7.41-5.01,14.39-10.76,20.72-17.1,6.34-6.34,12.09-13.31,17.1-20.72,5.06-7.48,9.4-15.48,12.91-23.78,3.57-8.45,6.32-17.29,8.16-26.27,1.89-9.22,2.84-18.72,2.84-28.22s-.96-19-2.84-28.22c-1.84-8.99-4.58-17.83-8.16-26.27-3.51-8.29-7.85-16.29-12.91-23.78-5.01-7.41-10.76-14.39-17.1-20.72-6.34-6.34-13.31-12.09-20.72-17.1-7.48-5.06-15.48-9.4-23.78-12.91-8.45-3.57-17.29-6.32-26.27-8.16-9.22-1.89-18.72-2.84-28.22-2.84"/><path class="cls-2" d="M1233.2,242.39v50.61h-4.83c-.75,0-1.37-.12-1.87-.37-.5-.24-.99-.66-1.45-1.24l-26.43-33.74c.14,1.54,.21,2.96,.21,4.27v31.08h-8.29v-50.61h4.93c.4,0,.74,.02,1.03,.05,.29,.04,.55,.1,.77,.21s.44,.26,.65,.46c.21,.2,.44,.46,.7,.79l26.53,33.88c-.07-.82-.13-1.62-.18-2.42-.05-.79-.07-1.53-.07-2.2v-30.77h8.29Zm-87.46,7.49v14.04h17.71v7.24h-17.71v14.32h22.47v7.52h-31.92v-50.61h31.92v7.49h-22.47Zm-34.72-7.49v50.61h-8.3v-32.69c0-1.31,.07-2.72,.21-4.24l-15.29,28.74c-.72,1.38-1.83,2.06-3.33,2.06h-1.33c-1.49,0-2.6-.69-3.32-2.06l-15.47-28.84c.07,.77,.13,1.53,.18,2.28,.05,.75,.07,1.43,.07,2.06v32.69h-8.29v-50.61h7.1c.42,0,.78,.01,1.08,.04,.3,.02,.58,.08,.82,.18,.24,.09,.47,.24,.67,.45,.2,.21,.39,.49,.58,.84l15.15,28.1c.4,.75,.76,1.52,1.1,2.31,.34,.79,.67,1.61,1,2.45,.33-.86,.66-1.7,1.01-2.5,.35-.8,.72-1.58,1.12-2.33l14.94-28.03c.19-.35,.39-.63,.59-.84,.21-.21,.44-.36,.68-.45,.24-.09,.52-.15,.82-.18,.3-.02,.67-.04,1.08-.04h7.11Zm-74.13,50.61h-7.28c-.82,0-1.48-.2-1.99-.61s-.9-.92-1.16-1.52l-3.78-10.32h-20.96l-3.78,10.32c-.19,.54-.55,1.03-1.08,1.47s-1.2,.67-1.99,.67h-7.35l19.91-50.61h9.59l19.88,50.61Zm-16.62-19.11l-6.16-16.83c-.3-.75-.62-1.63-.95-2.66-.33-1.03-.65-2.14-.98-3.33-.3,1.19-.62,2.3-.94,3.34-.33,1.04-.64,1.94-.95,2.71l-6.12,16.76h16.1Zm-46.24,19.11h-8.51c-1.61,0-2.78-.63-3.5-1.89l-10.64-16.2c-.4-.61-.83-1.04-1.31-1.3-.48-.26-1.18-.38-2.12-.38h-4.03v19.77h-9.41v-50.61h15.43c3.43,0,6.38,.36,8.84,1.07s4.48,1.71,6.05,2.99c1.58,1.28,2.74,2.82,3.48,4.6s1.12,3.75,1.12,5.9c0,1.7-.25,3.31-.75,4.83-.5,1.52-1.23,2.89-2.17,4.13s-2.11,2.32-3.5,3.26-2.97,1.67-4.74,2.21c.61,.35,1.17,.76,1.68,1.24s.98,1.04,1.4,1.7l12.67,18.69Zm-24.22-26.53c1.77,0,3.32-.22,4.64-.67,1.32-.44,2.4-1.06,3.26-1.84,.85-.78,1.49-1.71,1.91-2.78,.42-1.07,.63-2.25,.63-3.54,0-2.57-.85-4.54-2.54-5.92-1.69-1.38-4.28-2.06-7.75-2.06h-6.02v16.8h5.88Zm-66.15,26.53h-8.47c-.89,0-1.6-.1-2.15-.31s-1.13-.65-1.73-1.33l-3.5-3.6c-2.22,1.82-4.7,3.24-7.45,4.27-2.75,1.03-5.73,1.54-8.93,1.54-1.94,0-3.84-.33-5.72-1-1.88-.67-3.55-1.63-5.02-2.89s-2.65-2.78-3.55-4.57c-.9-1.78-1.35-3.8-1.35-6.04,0-1.59,.26-3.09,.77-4.5,.51-1.41,1.22-2.72,2.14-3.94s1.99-2.3,3.26-3.27c1.26-.97,2.64-1.8,4.13-2.5-1.26-1.75-2.17-3.46-2.73-5.13-.56-1.67-.84-3.33-.84-4.99,0-1.75,.32-3.41,.96-4.99,.64-1.57,1.57-2.95,2.78-4.11,1.21-1.17,2.71-2.09,4.48-2.78,1.77-.69,3.78-1.03,6.02-1.03,2.05,0,3.89,.31,5.51,.94,1.62,.63,3.01,1.47,4.17,2.52,1.16,1.05,2.06,2.25,2.73,3.6,.67,1.35,1.06,2.75,1.17,4.2l-5.49,1.15c-1.03,.21-1.77-.23-2.24-1.33-.21-.61-.48-1.18-.82-1.73s-.74-1.03-1.21-1.44c-.47-.41-1.02-.73-1.65-.98-.63-.24-1.35-.37-2.17-.37-.98,0-1.86,.17-2.62,.51-.77,.34-1.42,.79-1.94,1.36-.53,.57-.93,1.24-1.21,1.99-.28,.76-.42,1.56-.42,2.4,0,.7,.07,1.38,.21,2.03,.14,.65,.37,1.31,.7,1.96s.75,1.32,1.28,2.01c.53,.69,1.17,1.43,1.94,2.22l13.44,13.97c.77-1.47,1.39-3.02,1.85-4.66s.77-3.29,.91-4.97c.07-.54,.26-.97,.56-1.3s.72-.49,1.26-.49h5.39c-.02,3.08-.47,6.02-1.33,8.82-.86,2.8-2.1,5.38-3.71,7.74l10.6,10.99Zm-33.7-23.66c-1.87,1.21-3.23,2.58-4.08,4.11s-1.28,3.17-1.28,4.92c0,1.28,.22,2.44,.67,3.46,.44,1.03,1.04,1.9,1.8,2.61,.76,.71,1.65,1.26,2.66,1.65,1.02,.39,2.09,.58,3.24,.58,2.05,0,3.93-.32,5.64-.96,1.7-.64,3.24-1.53,4.62-2.68l-13.27-13.69Zm-60.72,15.89v7.77h-29.65v-50.61h9.42v42.84h20.23Zm-50.36,0v7.77h-29.65v-50.61h9.42v42.84h20.23Zm-54.95,7.77h-9.45v-50.61h9.45v50.61Zm-28.95,0h-8.51c-1.61,0-2.78-.63-3.5-1.89l-10.64-16.2c-.4-.61-.83-1.04-1.31-1.3-.48-.26-1.18-.38-2.12-.38h-4.02v19.77h-9.42v-50.61h15.43c3.43,0,6.38,.36,8.84,1.07s4.48,1.71,6.05,2.99,2.74,2.82,3.48,4.6c.75,1.78,1.12,3.75,1.12,5.9,0,1.7-.25,3.31-.75,4.83-.5,1.52-1.22,2.89-2.17,4.13s-2.11,2.32-3.5,3.26c-1.39,.93-2.97,1.67-4.74,2.21,.61,.35,1.17,.76,1.68,1.24,.51,.48,.98,1.04,1.4,1.7l12.67,18.69Zm-24.22-26.53c1.77,0,3.32-.22,4.64-.67,1.32-.44,2.4-1.06,3.26-1.84,.85-.78,1.49-1.71,1.91-2.78,.42-1.07,.63-2.25,.63-3.54,0-2.57-.85-4.54-2.54-5.92-1.69-1.38-4.28-2.06-7.75-2.06h-6.02v16.8h5.88Zm-38.4,1.16v20.48c-2.57,1.89-5.3,3.27-8.21,4.15-2.9,.88-6.01,1.31-9.33,1.31-4.13,0-7.87-.64-11.22-1.93-3.35-1.28-6.21-3.07-8.58-5.35-2.37-2.29-4.19-5.02-5.48-8.19s-1.92-6.64-1.92-10.4,.62-7.29,1.85-10.46c1.24-3.17,2.99-5.9,5.27-8.19,2.27-2.29,5.03-4.06,8.28-5.32s6.88-1.89,10.92-1.89c2.05,0,3.97,.16,5.76,.49,1.79,.33,3.44,.78,4.97,1.35s2.92,1.27,4.18,2.08,2.41,1.71,3.46,2.69l-2.69,4.27c-.42,.68-.97,1.09-1.65,1.24-.68,.15-1.41-.02-2.21-.51-.77-.44-1.54-.89-2.31-1.33-.77-.44-1.63-.83-2.57-1.16s-2.01-.59-3.18-.8c-1.18-.21-2.54-.31-4.08-.31-2.5,0-4.75,.42-6.77,1.26-2.02,.84-3.74,2.04-5.16,3.6s-2.52,3.44-3.29,5.64-1.15,4.64-1.15,7.35c0,2.89,.41,5.48,1.24,7.75,.83,2.27,1.99,4.2,3.5,5.77s3.32,2.78,5.44,3.6c2.12,.83,4.49,1.24,7.1,1.24,1.87,0,3.53-.2,5.01-.59,1.47-.4,2.9-.93,4.3-1.61v-9.17h-6.37c-.61,0-1.08-.17-1.42-.51-.34-.34-.51-.75-.51-1.24v-5.32h16.8Z"/><path class="cls-2" d="M1363.8,119.6h-39.6v-23c0-10.4,1.6-13.4,10.6-13.4h18.2c9.2,0,10.8,3,10.8,13.4v23Zm56.6,76.6V96.6c0-49.6-14-66.6-66.8-66.6h-22.2c-52.8,0-64.2,17-64.2,66.6v99.6h57v-24.6h39.6v24.6h56.6Zm-242.8-56.4c0,3.6-2.2,5.6-8,5.6h-31v-15.2h32.6c4.4,0,6.4,1.8,6.4,5v4.6Zm-3.2-50.4c0,2.8-3.8,5.8-7.8,5.8h-28v-13.2h29c4.6,0,6.8,2.4,6.8,5.2v2.2Zm66.4,59.2v-5.2c0-13.4-5.8-25-17.6-33,9.6-8.4,13.8-18.8,13.8-27.6v-5.4c0-35.8-19.2-44.6-54.2-44.6h-103.2V196h108.4c40.8,0,52.8-21.2,52.8-47.4Zm-187,47.6v-51.2h-83.4c-11.2,0-12.8-3.6-12.8-11h89v-38.4h-88.8c1.2-8.4,5-11,12.6-11h83.4V33h-94c-53.2,0-62,28.8-62,70.2v31c0,36.8,13.8,62,61.4,62h94.6Zm-173.8-110V33h-160.2v53.2h51v110h61V86.2h48.2Zm-235.2,33.4h-39.6v-23c0-10.4,1.6-13.4,10.6-13.4h18.2c9.2,0,10.8,3,10.8,13.4v23Zm56.6,76.6V96.6c0-49.6-14-66.6-66.8-66.6h-22.2c-52.8,0-64.2,17-64.2,66.6v99.6h57v-24.6h39.6v24.6h56.6Zm-239.4-97c0,5-3,9.2-12,9.2h-24v-21.6h24c8.8,0,12,2.8,12,10.6v1.8Zm59.8,97v-35c0-14-3-23.8-11.2-30,7-7.6,10.8-17.8,10.8-30.8v-9.6c0-45-20.6-57.8-55.2-57.8h-101.2V196.2h61v-41.4h23c8.4,0,12,3.6,12,11.8v29.6h60.8Z"/><path class="cls-1" d="M226.27,152.42v-33.43h-22.57v33.98c0,6.57-1.82,10.06-7.68,11.25v24.79c20.36-2.3,30.26-14.89,30.26-36.59Zm43.8-12.44v-8.87h-16.4v-3.09h16.4v-9.03h-30.97v33.43c0,21.7,9.98,34.3,30.26,36.59v-24.79c-5.62-1.03-7.68-4.67-7.68-11.25v-12.99h8.4Zm-78.89,24.08v-19.72H116.97v17.03h34.93c-.48,3.49-2.53,4.99-9.66,4.99h-22.26v21.94h25.43c23.13,0,29.86-10.46,31.13-24.24h14.65Zm-1.27-23.37v-19.88H118.16v19.88h71.76Zm-79.37,17.66v-16.48H37.92v18.85h48.32v1.43c0,2.77-1.74,4.2-7.45,4.2H44.1v21.7h32.24c26.85,0,34.22-12.91,34.22-29.7Zm-1.58-19.48v-19.01H39.11v19.01H108.97Z"/></g></g></svg>